<svg width="24" height="24" viewBox="0 0 24 24" fill="none" xmlns="http://www.w3.org/2000/svg">
<path d="M12.394 16.958C12.394 16.169 12.732 16.056 13.521 16.507C14.4083 17.0208 15.31 17.5093 16.225 17.972C16.225 17.522 16.676 17.183 17.465 17.408C18.254 17.634 19.042 17.746 19.042 17.746C19.042 17.746 18.592 16.732 18.366 16.282C18.028 15.493 18.366 15.042 18.704 14.93C18.704 14.93 18.254 14.592 17.915 14.366C17.239 13.916 17.352 13.352 18.028 13.126C18.93 12.676 20.169 12.226 20.169 12.226C19.831 12 19.38 11.436 19.831 10.648C20.281 9.972 21.071 8.958 21.071 8.958H18.93C18.14 8.958 17.915 8.282 17.915 7.831C17.915 7.831 16.676 8.732 15.775 9.296C14.985 9.859 14.31 9.296 14.423 8.394C14.5746 7.42221 14.6873 6.44477 14.761 5.464C14.31 5.915 13.521 5.803 13.071 5.127C12.507 4 11.944 2.647 11.944 2.647C11.944 2.647 11.38 4 10.817 5.128C10.479 5.804 9.69 5.916 9.239 5.578C9.31268 6.55877 9.42544 7.53621 9.577 8.508C9.69 9.297 9.014 9.86 8.225 9.297C7.324 8.733 5.972 7.832 5.972 7.832C5.972 8.282 5.746 8.846 4.958 8.959H2.817C2.817 8.959 3.606 9.973 4.057 10.649C4.507 11.325 4.057 12.001 3.718 12.226C3.718 12.226 4.845 12.79 5.859 13.128C6.535 13.466 6.761 13.916 5.972 14.368C5.746 14.593 5.183 14.931 5.183 14.931C5.633 15.043 5.972 15.494 5.633 16.283C5.408 16.733 4.958 17.747 4.958 17.747C4.958 17.747 5.746 17.522 6.535 17.409C7.324 17.184 7.662 17.635 7.775 17.973C7.775 17.973 9.127 17.184 10.479 16.508C11.155 16.058 11.606 16.283 11.606 16.958V18.874C11.606 20.001 11.38 21.128 11.042 21.804C5.972 21.24 1.69 17.184 1.69 11.776C1.69 6.255 6.31 1.747 12.056 1.747C17.803 1.747 22.423 6.255 22.423 11.776C22.423 16.959 18.366 21.24 13.183 21.804V23.156C19.268 22.592 24 17.746 24 11.775C24 5.352 18.592 0.282 11.944 0.282C5.408 0.282 0 5.352 0 11.662C0 17.183 4.169 21.802 9.69 22.817C10.592 23.042 11.155 23.155 11.718 23.718C12.282 22.592 12.394 20.338 12.394 19.098V16.958Z" fill="black"/>
</svg>
